<svg width="95" height="50" viewBox="0 0 95 50" fill="none" xmlns="http://www.w3.org/2000/svg">
<g clip-path="url(#clip0_1_214)">
<rect width="95" height="48.8901" transform="translate(0 0.322266)" fill="white"/>
<path d="M15.1047 44.788H11.1039L9.22235 35.6836L7.22287 44.788H3.24636L0 32.2949H3.69381L5.36379 41.4948L7.3015 32.2949H11.1039L13.1277 41.4948L14.8688 32.2949H18.3979L15.1047 44.788Z" fill="#001B4E"/>
<path d="M31.2465 33.9433C30.4003 33.9433 29.9753 33.9901 29.4586 34.1792C29.8741 34.7701 30.0887 35.4789 30.0708 36.2011C30.0708 38.532 28.1874 40.2488 24.6115 40.2488C23.7965 40.2545 22.9859 40.128 22.2114 39.8743C22.0035 40.0619 21.8772 40.3232 21.8594 40.6026C21.8594 41.2148 22.2339 41.5387 23.4358 41.5387H25.6C29.2938 41.5387 30.8927 43.1394 30.8927 45.2569C30.8927 47.6795 28.7284 49.209 24.5423 49.209C19.9779 49.209 18.4951 47.7974 18.4951 45.9627C18.4951 44.903 19.1298 44.0568 20.283 43.4914C19.9107 43.2857 19.6019 42.9817 19.3903 42.6127C19.1787 42.2436 19.0724 41.8236 19.083 41.3983C19.083 40.5745 19.6016 39.7508 20.5657 39.1386C20.051 38.8263 19.6256 38.3865 19.3304 37.8618C19.0352 37.3371 18.8804 36.7451 18.8808 36.1431C18.8808 33.8141 20.7155 31.9569 24.4093 31.9569C25.7985 31.9569 26.8806 32.2153 27.7268 32.6384C28.5038 31.7023 29.6327 31.1406 31.2559 31.1406L31.2465 33.9433ZM22.2114 44.1785C21.6011 44.5773 21.412 44.9536 21.412 45.4478C21.412 46.3184 22.071 46.8594 24.4243 46.8594C26.5417 46.8594 27.4198 46.3184 27.4198 45.4478C27.4198 44.5305 26.7833 44.1785 24.9261 44.1785H22.2114ZM22.2788 36.0813C22.2788 37.1634 23.0277 37.8692 24.4898 37.8692C25.9015 37.8692 26.7028 37.1859 26.7028 36.0813C26.7028 34.928 25.9539 34.2222 24.5142 34.2222C23.0745 34.2222 22.2788 34.958 22.2788 36.0813Z" fill="#001B4E"/>
<path d="M43.5302 44.788H40.1883V43.3071C39.766 43.8861 39.2089 44.3536 38.5653 44.669C37.9217 44.9845 37.211 45.1384 36.4945 45.1175C34.0944 45.1175 32.3308 43.7527 32.3308 40.7647V32.2949H35.7588V39.9709C35.7588 41.5716 36.3204 42.1819 37.5935 42.1819C39.0519 42.1819 40.0872 41.0586 40.0872 39.3362V32.2949H43.5227L43.5302 44.788Z" fill="#001B4E"/>
<path d="M58.9904 40.9481C58.9904 41.8411 59.5315 42.4458 60.6847 42.4458C62.0964 42.4458 63.2721 41.4816 63.2721 40.0944V38.8887L61.5085 39.1246C59.6962 39.3773 58.9904 39.894 58.9904 40.9481Z" fill="#001B4E"/>
<path d="M74.9436 34.6953C73.2268 34.6953 72.1204 35.9197 72.1204 38.5782C72.1204 41.1656 73.298 42.3881 74.8968 42.3881C76.6136 42.3881 77.7051 41.0008 77.7051 38.5782C77.6957 36.0377 76.6847 34.6953 74.9436 34.6953Z" fill="#001B4E"/>
<path d="M48.1245 0.322266V47.1979H95.0001V0.322266H48.1245ZM53.9077 44.7884H50.4722V28.3132H53.9077V44.7884ZM63.7198 44.7884C63.535 44.3853 63.4089 43.9579 63.3453 43.5191C62.428 44.7191 61.0631 45.1179 59.674 45.1179C57.0155 45.1179 55.4878 43.5191 55.4878 41.2837C55.4878 38.9304 56.9219 37.4963 60.6625 37.0245L63.2798 36.695V36.1333C63.2798 34.8228 62.881 34.3679 61.4076 34.3679C59.996 34.3679 59.4306 34.8396 59.3838 36.0154H55.9783C56.0719 33.2857 58.0957 31.9696 61.46 31.9696C65.2475 31.9696 66.7022 33.4037 66.7022 35.9012V42.0663C66.7022 43.0529 66.7733 43.9235 67.1253 44.794L63.7198 44.7884ZM75.7916 45.1179C74.1441 45.1179 72.9833 44.53 72.2157 43.5415V44.7884H68.8963V28.3132H72.3299V33.4879C73.2248 32.4301 74.4717 31.9602 75.7897 31.9602C79.0829 31.9602 81.2939 34.6187 81.2939 38.5709C81.2958 42.3658 79.0379 45.1179 75.7916 45.1179ZM87.8147 45.1179C85.0626 45.1179 83.2035 44.2941 81.8237 42.978L83.5798 40.9486C84.6422 41.9549 86.0481 42.5186 87.5114 42.5249C89.1589 42.5249 89.9116 42.0307 89.9116 41.2537C89.9116 40.4768 89.5821 40.1491 86.8992 39.6774C83.9356 39.1363 82.5239 37.9924 82.5239 35.8431C82.5239 33.3494 84.8529 31.9621 87.9345 31.9621C90.2879 31.9621 92.0533 32.7372 93.2291 33.8436L91.4636 35.772C90.4283 34.9258 89.3237 34.4783 88.0525 34.4783C86.6877 34.4783 86.053 34.9482 86.053 35.654C86.053 36.431 86.5473 36.6669 89.0485 37.1368C92.044 37.6554 93.5174 38.7843 93.5174 41.1133C93.5174 43.4423 91.4617 45.1179 87.8147 45.1179Z" fill="#001B4E"/>
</g>
<defs>
<clipPath id="clip0_1_214">
<rect width="95" height="48.8901" fill="white" transform="translate(0 0.322266)"/>
</clipPath>
</defs>
</svg>
